<svg width="57" height="57" viewBox="0 0 57 57" fill="none" xmlns="http://www.w3.org/2000/svg">
<g clip-path="url(#clip0_571_21681)">
<path d="M57 28.6729C57 12.9327 44.2401 0.172852 28.5 0.172852C12.7599 0.172852 0 12.9327 0 28.6729C0 42.898 10.4221 54.6886 24.0469 56.8266V36.9111H16.8105V28.6729H24.0469V22.3939C24.0469 15.2511 28.3017 11.3057 34.8117 11.3057C37.9299 11.3057 41.1914 11.8623 41.1914 11.8623V18.876H37.5976C34.0573 18.876 32.9531 21.0728 32.9531 23.3267V28.6729H40.8574L39.5938 36.9111H32.9531V56.8266C46.578 54.6886 57 42.898 57 28.6729Z" fill="#F7A209"/>
</g>
<defs>
<clipPath id="clip0_571_21681">
<rect width="57" height="57" fill="white"/>
</clipPath>
</defs>
</svg>
