<svg width="58" height="58" viewBox="0 0 58 58" fill="none" xmlns="http://www.w3.org/2000/svg">
<path fill-rule="evenodd" clip-rule="evenodd" d="M29 0C45.0055 0 58 12.9945 58 29C58 45.0055 45.0055 58 29 58C12.9945 58 0 45.0055 0 29C0 12.9945 12.9945 0 29 0ZM29 10.875C24.0776 10.875 23.4603 10.8958 21.5271 10.9841C19.5979 11.0721 18.2803 11.3785 17.1273 11.8266C15.9355 12.2898 14.9247 12.9095 13.9171 13.9172C12.9094 14.9248 12.2897 15.9356 11.8264 17.1274C11.3784 18.2803 11.0721 19.5979 10.984 21.5271C10.8958 23.4603 10.875 24.0776 10.875 29C10.875 33.9224 10.8958 34.5397 10.984 36.4729C11.0721 38.4021 11.3784 39.7197 11.8264 40.8726C12.2897 42.0644 12.9094 43.0752 13.9171 44.0829C14.9247 45.0906 15.9355 45.7103 17.1273 46.1736C18.2803 46.6215 19.5979 46.9279 21.5271 47.0159C23.4603 47.1042 24.0776 47.125 29 47.125C33.9224 47.125 34.5397 47.1042 36.4729 47.0159C38.4021 46.9279 39.7197 46.6215 40.8726 46.1736C42.0644 45.7103 43.0752 45.0906 44.0829 44.0829C45.0906 43.0752 45.7103 42.0644 46.1736 40.8726C46.6215 39.7197 46.9279 38.4021 47.0159 36.4729C47.1042 34.5397 47.125 33.9224 47.125 29C47.125 24.0776 47.1042 23.4603 47.0159 21.5271C46.9279 19.5979 46.6215 18.2803 46.1736 17.1274C45.7103 15.9356 45.0906 14.9248 44.0829 13.9172C43.0752 12.9095 42.0644 12.2898 40.8726 11.8266C39.7197 11.3785 38.4021 11.0721 36.4729 10.9841C34.5397 10.8958 33.9224 10.875 29 10.875ZM29 14.1408C33.8396 14.1408 34.4128 14.1593 36.3241 14.2465C38.0913 14.3271 39.0509 14.6223 39.6896 14.8705C40.5357 15.1993 41.1394 15.5921 41.7736 16.2264C42.408 16.8606 42.8007 17.4645 43.1295 18.3104C43.3777 18.9491 43.673 19.9087 43.7535 21.6759C43.8408 23.5872 43.8592 24.1604 43.8592 29C43.8592 33.8396 43.8408 34.4128 43.7535 36.3241C43.673 38.0913 43.3777 39.0509 43.1295 39.6896C42.8007 40.5357 42.408 41.1394 41.7736 41.7736C41.1394 42.408 40.5357 42.8007 39.6896 43.1295C39.0509 43.3777 38.0913 43.673 36.3241 43.7535C34.4131 43.8408 33.8399 43.8592 29 43.8592C24.1601 43.8592 23.587 43.8408 21.6759 43.7535C19.9087 43.673 18.9491 43.3777 18.3104 43.1295C17.4643 42.8007 16.8606 42.408 16.2263 41.7736C15.592 41.1394 15.1993 40.5357 14.8705 39.6896C14.6223 39.0509 14.327 38.0913 14.2464 36.3241C14.1591 34.4128 14.1408 33.8396 14.1408 29C14.1408 24.1604 14.1591 23.5872 14.2464 21.6759C14.327 19.9087 14.6223 18.9491 14.8705 18.3104C15.1993 17.4645 15.592 16.8606 16.2263 16.2264C16.8606 15.5921 17.4643 15.1993 18.3104 14.8705C18.9491 14.6223 19.9087 14.3271 21.6759 14.2465C23.5872 14.1593 24.1604 14.1408 29 14.1408ZM29 19.6926C23.8596 19.6926 19.6926 23.8596 19.6926 29C19.6926 34.1404 23.8596 38.3074 29 38.3074C34.1404 38.3074 38.3074 34.1404 38.3074 29C38.3074 23.8596 34.1404 19.6926 29 19.6926ZM29 35.0416C25.6633 35.0416 22.9584 32.3367 22.9584 29C22.9584 25.6633 25.6633 22.9584 29 22.9584C32.3367 22.9584 35.0416 25.6633 35.0416 29C35.0416 32.3367 32.3367 35.0416 29 35.0416ZM40.8502 19.3249C40.8502 20.5261 39.8764 21.4998 38.6751 21.4998C37.474 21.4998 36.5002 20.5261 36.5002 19.3249C36.5002 18.1236 37.474 17.1499 38.6751 17.1499C39.8764 17.1499 40.8502 18.1236 40.8502 19.3249Z" fill="#F7A209"/>
</svg>
