<svg width="58" height="58" viewBox="0 0 58 58" fill="none" xmlns="http://www.w3.org/2000/svg">
<path fill-rule="evenodd" clip-rule="evenodd" d="M29 0C12.9834 0 0 12.984 0 28.9994C0 45.016 12.9834 58 29 58C45.0156 58 58 45.0162 58 28.9994C58 12.984 45.0156 0 29 0ZM20.4931 41.7937H13.8152V21.6469H20.4931V41.7937ZM17.1542 18.8958H17.1115C14.8697 18.8958 13.4201 17.3478 13.4201 15.4139C13.4201 13.4396 14.9133 11.9352 17.1989 11.9352C19.4834 11.9352 20.8902 13.4396 20.934 15.4139C20.934 17.3478 19.4834 18.8958 17.1542 18.8958ZM44.5798 41.7937H37.9009V31.0145C37.9009 28.3074 36.935 26.459 34.5162 26.459C32.6726 26.459 31.5735 27.7047 31.0899 28.9078C30.9143 29.3395 30.8705 29.9399 30.8705 30.5424V41.7939H24.1906C24.1906 41.7939 24.2789 23.5371 24.1906 21.647H30.8705V24.4993C31.7564 23.1285 33.3443 21.1738 36.8891 21.1738C41.2855 21.1738 44.5796 24.0531 44.5796 30.2413V41.7937H44.5798Z" fill="#F7A209"/>
</svg>
