<svg width="35" height="50" viewBox="0 0 35 50" fill="none" xmlns="http://www.w3.org/2000/svg">
<path d="M17.2477 49.1966C16.6838 49.1966 16.2005 49.0355 15.7977 48.7133C15.3949 48.3911 15.0929 47.9681 14.8915 47.4445C14.1262 45.189 13.1595 43.0744 11.9915 41.1008C10.8637 39.1272 9.27272 36.8112 7.21856 34.1529C5.16439 31.4945 3.49286 28.957 2.20397 26.5404C0.95536 24.1237 0.331055 21.2036 0.331055 17.7799C0.331055 13.0674 1.96231 9.07995 5.2248 5.81744C8.52758 2.51467 12.5352 0.863281 17.2477 0.863281C21.9602 0.863281 25.9477 2.51467 29.2102 5.81744C32.513 9.07995 34.1644 13.0674 34.1644 17.7799C34.1644 21.4452 33.4595 24.5063 32.0498 26.9633C30.6804 29.3799 29.0894 31.7765 27.2769 34.1529C25.1019 37.0529 23.4505 39.4695 22.3227 41.4029C21.2352 43.2959 20.329 45.3098 19.604 47.4445C19.4026 48.0084 19.0804 48.4515 18.6373 48.7737C18.2345 49.0556 17.7713 49.1966 17.2477 49.1966ZM17.2477 40.557C17.9324 39.1876 18.6977 37.8383 19.5436 36.5091C20.4297 35.1799 21.7186 33.4077 23.4102 31.1924C25.1422 28.9369 26.5519 26.8626 27.6394 24.9695C28.7672 23.0362 29.3311 20.6397 29.3311 17.7799C29.3311 14.4369 28.1429 11.5973 25.7665 9.2612C23.4304 6.88481 20.5908 5.69661 17.2477 5.69661C13.9047 5.69661 11.0449 6.88481 8.66856 9.2612C6.33244 11.5973 5.16439 14.4369 5.16439 17.7799C5.16439 20.6397 5.70814 23.0362 6.79564 24.9695C7.92342 26.8626 9.35328 28.9369 11.0852 31.1924C12.7769 33.4077 14.0456 35.1799 14.8915 36.5091C15.7776 37.8383 16.563 39.1876 17.2477 40.557ZM17.2477 23.8216C18.9394 23.8216 20.3692 23.2376 21.5373 22.0695C22.7054 20.9015 23.2894 19.4716 23.2894 17.7799C23.2894 16.0883 22.7054 14.6584 21.5373 13.4904C20.3692 12.3223 18.9394 11.7383 17.2477 11.7383C15.5561 11.7383 14.1262 12.3223 12.9581 13.4904C11.7901 14.6584 11.2061 16.0883 11.2061 17.7799C11.2061 19.4716 11.7901 20.9015 12.9581 22.0695C14.1262 23.2376 15.5561 23.8216 17.2477 23.8216Z" fill="#219EBC"/>
</svg>
