<svg width="58" height="58" viewBox="0 0 58 58" fill="none" xmlns="http://www.w3.org/2000/svg">
<path fill-rule="evenodd" clip-rule="evenodd" d="M22.6861 32.1811H20.5888V43.4284H18.5621V32.1811H16.4647V30.2713H22.686V32.1811H22.6861ZM25.9991 41.091C25.8306 41.3027 25.6446 41.4768 25.4428 41.6133C25.241 41.7489 25.0737 41.8178 24.9406 41.8178C24.7721 41.8178 24.6504 41.7656 24.5746 41.6623C24.4998 41.5602 24.4612 41.3933 24.4612 41.163V33.7229H22.6613V41.8365C22.6613 42.413 22.7673 42.8467 22.9784 43.1367C23.1895 43.4252 23.5024 43.569 23.9184 43.569C24.2563 43.569 24.6047 43.466 24.9633 43.2595C25.3231 43.0532 25.6683 42.753 25.9991 42.3579V43.4284H27.799V33.7228H25.9991V41.091ZM34.2772 34.2223C34.5778 34.6371 34.7275 35.2408 34.7275 36.0332V41.4184C34.7275 42.1084 34.5871 42.636 34.3063 43.0029C34.0235 43.3688 33.6158 43.5524 33.0825 43.5524C32.7311 43.5524 32.417 43.4815 32.1415 43.3385C31.8659 43.1969 31.6092 42.9788 31.3732 42.6828V43.4284H29.5556V30.2713H31.3732V34.5079C31.6154 34.2109 31.8721 33.9868 32.1457 33.8324C32.4181 33.6783 32.6949 33.601 32.9734 33.601C33.5431 33.6008 33.9787 33.8082 34.2772 34.2223ZM32.8754 36.1424C32.8754 35.8153 32.8109 35.567 32.683 35.3971C32.5539 35.227 32.3679 35.1416 32.1245 35.1416C31.9956 35.1416 31.8698 35.174 31.744 35.2375C31.6181 35.3011 31.4944 35.4001 31.3728 35.5336V41.5821C31.5193 41.7395 31.6618 41.8533 31.7991 41.923C31.9362 41.9928 32.0808 42.0274 32.2336 42.0274C32.454 42.0274 32.6153 41.9596 32.7192 41.8241C32.8233 41.6864 32.8752 41.4644 32.8752 41.1548L32.8754 36.1424ZM40.7179 34.2139C41.1598 34.706 41.3815 35.4117 41.3815 36.3333V38.804H37.9385V40.6347C37.9385 41.1454 37.9979 41.4988 38.1173 41.6968C38.235 41.8951 38.4376 41.993 38.7245 41.993C39.0219 41.993 39.2309 41.9096 39.3505 41.7418C39.469 41.575 39.5284 41.2062 39.5284 40.6348V39.9602H41.3813V40.6899C41.3813 41.6845 41.1556 42.4329 40.7044 42.9374C40.2531 43.4398 39.5803 43.6921 38.683 43.6921C37.8781 43.6921 37.2437 43.4252 36.78 42.8917C36.3184 42.358 36.0855 41.6241 36.0855 40.6899V36.3335C36.0855 35.49 36.3403 34.804 36.8486 34.2735C37.3572 33.743 38.0143 33.478 38.8193 33.478C39.6437 33.4779 40.2749 33.7239 40.7179 34.2139ZM39.5284 36.3146C39.5284 35.909 39.466 35.617 39.3413 35.4409C39.2164 35.2656 39.0167 35.177 38.7422 35.177C38.4563 35.177 38.2503 35.2658 38.1256 35.4409C38.0009 35.6169 37.9385 35.909 37.9385 36.3146V37.2965H39.5285V36.3146H39.5284ZM58 28.9994C58 45.016 45.0156 58 29 58C12.9834 58 0 45.0162 0 28.9994C0 12.984 12.9834 0 29 0C45.0156 0 58 12.984 58 28.9994ZM29.5875 22.5133C29.5875 23.0907 29.6916 23.5234 29.9036 23.8133C30.1147 24.1021 30.4276 24.2469 30.8445 24.2469C31.1815 24.2469 31.5299 24.1426 31.8887 23.9373C32.2474 23.7299 32.5927 23.4297 32.9244 23.0345V24.1061H34.7243V14.4007H32.9244V21.7678C32.7558 21.9793 32.5707 22.1535 32.368 22.29C32.1662 22.4265 31.9989 22.4943 31.8658 22.4943C31.6973 22.4943 31.5756 22.4421 31.4998 22.34C31.4238 22.2367 31.3866 22.071 31.3866 21.8406V14.4005H29.5876V22.5133H29.5875ZM23.5606 14.8239C23.076 15.269 22.8336 15.8674 22.8336 16.619V21.651C22.8336 22.4756 23.0707 23.1324 23.5429 23.6192C24.0149 24.108 24.645 24.351 25.4323 24.351C26.2507 24.351 26.8923 24.1154 27.3592 23.6422C27.8261 23.169 28.0589 22.5184 28.0589 21.6865V16.6742C28.0589 15.9341 27.8207 15.3284 27.3455 14.8593C26.8692 14.3903 26.2599 14.1546 25.5143 14.1546C24.6961 14.1546 24.0451 14.3777 23.5606 14.8239ZM16.1268 10.9491L18.5391 18.8927V24.1061H20.5658V18.6466L22.9252 10.9489H20.8663L19.6112 16.2082H19.4844L18.1691 10.9489L16.1268 10.9491ZM43.8332 37.039C43.8396 35.1835 43.7781 33.3256 43.6356 31.469C43.6356 29.1267 41.7171 27.2242 39.3516 27.2242C35.9763 27.0824 32.5231 27.0198 29 27.0272C25.4771 27.0198 22.0227 27.0824 18.6474 27.2242C16.2828 27.2242 14.3644 29.1267 14.3644 31.469C14.2219 33.3256 14.1606 35.1835 14.1658 37.039C14.1606 38.8955 14.222 40.7523 14.3644 42.6089C14.3644 44.9522 16.2829 46.8547 18.6474 46.8547C22.0227 46.9957 25.4771 47.0581 29 47.0519C32.5231 47.0581 35.9763 46.9957 39.3516 46.8547C41.7172 46.8547 43.6356 44.9522 43.6356 42.6089C43.7781 40.7525 43.8396 38.8957 43.8332 37.039ZM25.4271 22.6696C25.6704 22.6696 25.8659 22.5955 26.0094 22.4466C26.1519 22.2986 26.2236 22.0931 26.2236 21.8326V16.5462C26.2236 16.3335 26.1508 16.1625 26.0042 16.0322C25.8575 15.902 25.6662 15.8373 25.4271 15.8373C25.2076 15.8373 25.0299 15.902 24.8915 16.0322C24.7554 16.1625 24.6856 16.3335 24.6856 16.5462V21.8326C24.6856 22.0995 24.749 22.3058 24.878 22.4518C25.007 22.5976 25.189 22.6696 25.4271 22.6696Z" fill="#F7A209"/>
</svg>
