<svg width="660" height="604" viewBox="0 0 660 604" fill="none" xmlns="http://www.w3.org/2000/svg">
<g opacity="0.4">
<path fill-rule="evenodd" clip-rule="evenodd" d="M257.904 292.839L236.41 314.334L257.904 335.828V366.227H288.303L309.797 387.721L331.292 366.227H361.69V335.829L383.185 314.334L361.69 292.839V262.441H331.292L309.797 240.947L288.302 262.441H257.904V292.839Z" fill="#E7E7E7"/>
<path fill-rule="evenodd" clip-rule="evenodd" d="M265.169 295.846L246.666 314.349L265.169 332.853V359.02H291.337L309.84 377.523L328.343 359.02H354.51V332.852L373.013 314.349L354.51 295.846V269.679H328.343L309.84 251.176L291.336 269.679H265.169V295.846Z" fill="#D8E3E5"/>
<rect x="354.469" y="270.109" width="143.928" height="7.14444" transform="rotate(-89.6658 354.469 270.109)" fill="#E7E7E7"/>
<rect x="377.716" y="154.126" width="45.744" height="7.06523" transform="rotate(-180 377.716 154.126)" fill="#E7E7E7"/>
<rect x="407.981" y="181.827" width="45.7445" height="7.06523" transform="rotate(-140.019 407.981 181.827)" fill="#E7E7E7"/>
<rect x="511.728" y="181.891" width="103.699" height="7.06523" transform="rotate(180 511.728 181.891)" fill="#E7E7E7"/>
<rect x="511.728" y="151.578" width="104.611" height="7.06523" transform="rotate(180 511.728 151.578)" fill="#E7E7E7"/>
<rect x="288.344" y="52.9676" width="103.972" height="7.06523" transform="rotate(44.6907 288.344 52.9676)" fill="#E7E7E7"/>
<rect x="261.701" y="74.6674" width="105.641" height="7.06523" transform="rotate(44.6907 261.701 74.6674)" fill="#E7E7E7"/>
<rect x="304.784" y="246.04" width="143.927" height="7.14444" transform="rotate(-44.815 304.784 246.04)" fill="#E7E7E7"/>
<rect x="310.61" y="251.975" width="143.928" height="7.14444" transform="rotate(-133.734 310.61 251.975)" fill="#E7E7E7"/>
<rect x="246.645" y="152.47" width="45.744" height="7.06523" transform="rotate(135.932 246.645 152.47)" fill="#E7E7E7"/>
<rect x="287.657" y="151.324" width="45.7446" height="7.06524" transform="rotate(175.913 287.657 151.324)" fill="#E7E7E7"/>
<rect x="362.854" y="78.6229" width="104.547" height="7.06523" transform="rotate(135.932 362.854 78.6229)" fill="#E7E7E7"/>
<rect x="341.219" y="57.3768" width="104.691" height="7.06523" transform="rotate(135.932 341.219 57.3768)" fill="#E7E7E7"/>
<rect x="139.797" y="142.247" width="76.2459" height="7.06523" transform="rotate(0.622198 139.797 142.247)" fill="#E7E7E7"/>
<rect x="139.892" y="176.416" width="73.7712" height="7.06523" transform="rotate(0.622198 139.892 176.416)" fill="#E7E7E7"/>
<rect x="258.171" y="269.237" width="143.927" height="7.14444" transform="rotate(-88.8835 258.171 269.237)" fill="#E7E7E7"/>
<rect x="373.179" y="314.271" width="143.928" height="7.14444" transform="rotate(-44.6658 373.179 314.271)" fill="#E7E7E7"/>
<rect x="471.629" y="248.696" width="45.744" height="7.06523" transform="rotate(-135 471.629 248.696)" fill="#E7E7E7"/>
<rect x="473.443" y="289.689" width="45.7446" height="7.06524" transform="rotate(-95.0186 473.443 289.689)" fill="#E7E7E7"/>
<rect x="524.763" y="341.099" width="72.5942" height="7.06523" transform="rotate(-135 524.763 341.099)" fill="#E7E7E7"/>
<rect x="546.223" y="319.688" width="73.5404" height="7.06523" transform="rotate(-135 546.223 319.688)" fill="#E7E7E7"/>
<rect x="479.909" y="103.903" width="114.038" height="7.06523" transform="rotate(89.6907 479.909 103.903)" fill="#E7E7E7"/>
<rect x="445.745" y="103.914" width="112.205" height="7.06523" transform="rotate(89.6907 445.745 103.914)" fill="#E7E7E7"/>
<rect x="445.909" y="54.1441" width="18.8766" height="7.06523" transform="rotate(89.6907 445.909 54.1441)" fill="#E7E7E7"/>
<rect x="539.074" y="174.827" width="57.4335" height="7.06523" fill="#E7E7E7"/>
<rect x="539.076" y="144.514" width="59.2568" height="7.06523" fill="#E7E7E7"/>
<rect x="480.102" y="54.8521" width="17.4871" height="7.06523" transform="rotate(89.6907 480.102 54.8521)" fill="#E7E7E7"/>
<rect x="355.066" y="262.119" width="143.927" height="7.14444" transform="rotate(0.18495 355.066 262.119)" fill="#E7E7E7"/>
<rect x="474.788" y="108.924" width="50.8395" height="7.06524" transform="rotate(-135 474.788 108.924)" fill="#E7E7E7"/>
<rect width="51.8097" height="7.06524" transform="matrix(0.707107 -0.707107 -0.707107 -0.707107 443.563 108.924)" fill="#E7E7E7"/>
<rect x="539.059" y="181.856" width="45.744" height="7.06524" transform="rotate(-135 539.059 181.856)" fill="#E7E7E7"/>
<rect width="45.744" height="7.06524" transform="matrix(0.707107 -0.707107 -0.707107 -0.707107 511.709 181.856)" fill="#E7E7E7"/>
<rect x="571.641" y="292.544" width="37.3614" height="7.06523" transform="rotate(135.15 571.641 292.544)" fill="#E7E7E7"/>
<rect x="550.263" y="271.054" width="37.3614" height="7.06523" transform="rotate(135.15 550.263 271.054)" fill="#E7E7E7"/>
<rect x="586.047" y="268.247" width="12.7791" height="7.06523" transform="rotate(-44.8499 586.047 268.247)" fill="#E7E7E7"/>
<rect x="564.67" y="246.756" width="43.1849" height="7.06523" transform="rotate(-44.8499 564.67 246.756)" fill="#E7E7E7"/>
<rect x="590.992" y="273.243" width="45.744" height="7.06524" transform="rotate(-179.85 590.992 273.243)" fill="#E7E7E7"/>
<rect width="45.744" height="7.06524" transform="matrix(0.0026206 -0.999997 -0.999997 -0.0026206 571.603 292.53)" fill="#E7E7E7"/>
<rect x="548.274" y="363.027" width="37.3614" height="7.06523" transform="rotate(-135.66 548.274 363.027)" fill="#E7E7E7"/>
<rect x="569.461" y="341.347" width="37.3614" height="7.06523" transform="rotate(-135.66 569.461 341.347)" fill="#E7E7E7"/>
<rect x="572.772" y="377.088" width="37.3608" height="7.06523" transform="rotate(44.3401 572.772 377.088)" fill="#E7E7E7"/>
<rect x="593.96" y="355.411" width="8.32064" height="7.06523" transform="rotate(44.3401 593.96 355.411)" fill="#E7E7E7"/>
<rect x="567.848" y="382.103" width="45.744" height="7.06524" transform="rotate(-90.6599 567.848 382.103)" fill="#E7E7E7"/>
<rect width="45.744" height="7.06524" transform="matrix(0.999934 -0.0115174 -0.0115174 -0.999934 548.287 362.988)" fill="#E7E7E7"/>
<rect width="39.9351" height="7.55171" transform="matrix(-0.999964 -0.00843339 0.00265723 -0.999996 510.645 483.213)" fill="#E7E7E7"/>
<rect width="39.9351" height="7.55171" transform="matrix(-0.999964 -0.00843339 0.00265723 -0.999996 510.73 450.813)" fill="#E7E7E7"/>
<rect width="55.524" height="7.55171" transform="matrix(0.999964 0.00843339 -0.00265723 0.999996 539.896 475.907)" fill="#E7E7E7"/>
<rect width="56.1617" height="7.55171" transform="matrix(0.999964 0.00843339 -0.00265723 0.999996 539.983 443.509)" fill="#E7E7E7"/>
<rect width="49.0354" height="7.52998" transform="matrix(-0.703185 -0.711006 0.711028 -0.703164 539.858 483.421)" fill="#E7E7E7"/>
<rect width="48.753" height="7.5736" transform="matrix(0.711028 -0.703164 -0.703185 -0.711006 510.626 483.174)" fill="#E7E7E7"/>
<rect x="309.161" y="376.814" width="143.928" height="7.14444" transform="rotate(45.3308 309.161 376.814)" fill="#E7E7E7"/>
<rect x="374.741" y="475.261" width="45.744" height="7.06523" transform="rotate(-45.0034 374.741 475.261)" fill="#E7E7E7"/>
<rect x="333.753" y="477.077" width="45.7445" height="7.06524" transform="rotate(-5.02205 333.753 477.077)" fill="#E7E7E7"/>
<rect x="282.409" y="528.337" width="72.5042" height="7.06523" transform="rotate(-45.0034 282.409 528.337)" fill="#E7E7E7"/>
<rect x="303.713" y="549.901" width="73.6024" height="7.06523" transform="rotate(-45.0034 303.713 549.901)" fill="#E7E7E7"/>
<rect x="478.024" y="483.759" width="72.5293" height="7.06524" transform="rotate(179.687 478.024 483.759)" fill="#E7E7E7"/>
<rect x="477.798" y="449.596" width="70.4777" height="7.06524" transform="rotate(179.687 477.798 449.596)" fill="#E7E7E7"/>
<rect x="361.312" y="358.699" width="143.927" height="7.14444" transform="rotate(90.1815 361.312 358.699)" fill="#E7E7E7"/>
<rect x="264.883" y="358.423" width="143.928" height="7.14444" transform="rotate(90.6477 264.883 358.423)" fill="#E7E7E7"/>
<rect x="241.002" y="474.279" width="45.744" height="7.06524" transform="rotate(0.313523 241.002 474.279)" fill="#E7E7E7"/>
<rect x="210.888" y="446.412" width="45.7445" height="7.06523" transform="rotate(40.2949 210.888 446.412)" fill="#E7E7E7"/>
<rect x="139.849" y="445.959" width="70.9945" height="7.06524" transform="rotate(0.313523 139.849 445.959)" fill="#E7E7E7"/>
<rect x="140.136" y="476.274" width="71.4527" height="7.06524" transform="rotate(0.313523 140.136 476.274)" fill="#E7E7E7"/>
<rect x="305.7" y="551.802" width="69.8601" height="7.06523" transform="rotate(-134.996 305.7 551.802)" fill="#E7E7E7"/>
<rect x="332.886" y="530.674" width="72.1319" height="7.06523" transform="rotate(-134.996 332.886 530.674)" fill="#E7E7E7"/>
<rect x="314.435" y="382.765" width="143.927" height="7.14444" transform="rotate(135.498 314.435 382.765)" fill="#E7E7E7"/>
<rect x="247.163" y="313.801" width="143.928" height="7.14444" transform="rotate(135.438 247.163 313.801)" fill="#E7E7E7"/>
<rect x="148.593" y="379.198" width="45.744" height="7.06523" transform="rotate(45.1039 148.593 379.198)" fill="#E7E7E7"/>
<rect x="146.854" y="338.205" width="45.7445" height="7.06523" transform="rotate(85.0853 146.854 338.205)" fill="#E7E7E7"/>
<rect x="96.1826" y="287.259" width="71.8078" height="7.06523" transform="rotate(45.1039 96.1826 287.259)" fill="#E7E7E7"/>
<rect x="74.8965" y="308.842" width="72.4552" height="7.06523" transform="rotate(45.1039 74.8965 308.842)" fill="#E7E7E7"/>
<rect x="139.903" y="483.044" width="73.1089" height="7.06523" transform="rotate(-90.2055 139.903 483.044)" fill="#E7E7E7"/>
<rect x="174.068" y="483.296" width="71.4719" height="7.06523" transform="rotate(-90.2055 174.068 483.296)" fill="#E7E7E7"/>
<rect x="265.181" y="365.986" width="143.927" height="7.14444" transform="rotate(-179.711 265.181 365.986)" fill="#E7E7E7"/>
<rect x="265.374" y="269.572" width="143.928" height="7.14444" transform="rotate(-179.666 265.374 269.572)" fill="#E7E7E7"/>
<rect x="149.39" y="246.325" width="45.744" height="7.06523" transform="rotate(90 149.39 246.325)" fill="#E7E7E7"/>
<rect x="177.092" y="216.059" width="45.7445" height="7.06523" transform="rotate(129.981 177.092 216.059)" fill="#E7E7E7"/>
<rect x="177.154" y="142.463" width="73.6152" height="7.06523" transform="rotate(90 177.154 142.463)" fill="#E7E7E7"/>
<rect x="146.841" y="143.146" width="73.8431" height="7.06523" transform="rotate(90 146.841 143.146)" fill="#E7E7E7"/>
<rect x="72.0146" y="311.653" width="70.152" height="7.06523" transform="rotate(-45.3093 72.0146 311.653)" fill="#E7E7E7"/>
<rect x="94.1016" y="337.907" width="71.2743" height="7.06523" transform="rotate(-45.3093 94.1016 337.907)" fill="#E7E7E7"/>
<rect x="241.304" y="319.256" width="143.927" height="7.14444" transform="rotate(-134.815 241.304 319.256)" fill="#E7E7E7"/>
<rect x="353.28" y="358.978" width="143.928" height="7.14444" transform="rotate(0.939043 353.28 358.978)" fill="#E7E7E7"/>
<rect x="469.013" y="383.448" width="45.744" height="7.06524" transform="rotate(-89.3951 469.013 383.448)" fill="#E7E7E7"/>
<rect x="440.993" y="413.42" width="45.7445" height="7.06523" transform="rotate(-49.4138 440.993 413.42)" fill="#E7E7E7"/>
<rect x="440.186" y="483.869" width="70.407" height="7.06524" transform="rotate(-89.3951 440.186 483.869)" fill="#E7E7E7"/>
<rect x="470.499" y="483.812" width="70.9413" height="7.06524" transform="rotate(-89.3951 470.499 483.812)" fill="#E7E7E7"/>
<rect x="551.266" y="314.791" width="76.0521" height="7.06524" transform="rotate(135.296 551.266 314.791)" fill="#E7E7E7"/>
<rect x="527.14" y="290.6" width="73.91" height="7.06524" transform="rotate(135.296 527.14 290.6)" fill="#E7E7E7"/>
<rect x="377.873" y="309.551" width="143.927" height="7.14444" transform="rotate(45.7898 377.873 309.551)" fill="#E7E7E7"/>
<rect x="341.085" y="56.3139" width="37.3608" height="7.06523" transform="rotate(135.476 341.085 56.3139)" fill="#E7E7E7"/>
<rect x="362.34" y="77.9245" width="37.3608" height="7.06523" transform="rotate(135.476 362.34 77.9245)" fill="#E7E7E7"/>
<rect x="336.168" y="51.2889" width="45.744" height="7.06523" transform="rotate(0.476371 336.168 51.2889)" fill="#E7E7E7"/>
<rect width="22.3075" height="7.06524" transform="matrix(-0.00831415 0.999965 0.999965 0.00831415 355.472 55.5481)" fill="#E7E7E7"/>
<rect width="53.356" height="7.35764" transform="matrix(-0.999996 -0.00263197 0.0366125 -0.999329 72.5225 182.271)" fill="#E7E7E7"/>
<rect width="54.2191" height="7.35764" transform="matrix(-0.999996 -0.00263197 0.0366125 -0.999329 73.6777 150.727)" fill="#E7E7E7"/>
<rect width="38.9001" height="7.35764" transform="matrix(0.999996 0.00263197 -0.0366125 0.999329 101.268 174.995)" fill="#E7E7E7"/>
<rect width="38.9001" height="7.35764" transform="matrix(0.999996 0.00263197 -0.0366125 0.999329 102.423 143.449)" fill="#E7E7E7"/>
<rect width="46.8166" height="7.48094" transform="matrix(-0.693027 -0.720911 0.720788 -0.693156 100.981 182.31)" fill="#E7E7E7"/>
<rect width="48.4355" height="7.2309" transform="matrix(0.720788 -0.693156 -0.693027 -0.720911 72.5049 182.235)" fill="#E7E7E7"/>
<rect x="139.092" y="78.4426" width="24.4496" height="7.06523" transform="rotate(-90.8461 139.092 78.4426)" fill="#E7E7E7"/>
<rect x="169.4" y="77.9973" width="24.6498" height="7.06523" transform="rotate(-90.8461 169.4 77.9973)" fill="#E7E7E7"/>
<rect x="146.56" y="105.685" width="37.3608" height="7.06523" transform="rotate(89.1539 146.56 105.685)" fill="#E7E7E7"/>
<rect x="176.868" y="105.238" width="37.3608" height="7.06523" transform="rotate(89.1539 176.868 105.238)" fill="#E7E7E7"/>
<rect x="139.53" y="105.771" width="45.744" height="7.06524" transform="rotate(-45.8461 139.53 105.771)" fill="#E7E7E7"/>
<rect width="45.744" height="7.06524" transform="matrix(0.717471 0.696588 0.696588 -0.717471 139.127 78.425)" fill="#E7E7E7"/>
<rect width="40.8292" height="7.72261" transform="matrix(0.710458 0.70374 -0.729422 0.684064 262.374 73.4609)" fill="#E7E7E7"/>
<rect width="40.8292" height="7.72261" transform="matrix(0.710458 0.70374 -0.729422 0.684064 286.542 50.7953)" fill="#E7E7E7"/>
<rect width="24.4979" height="7.86275" transform="matrix(0.013764 -0.999905 0.999908 0.0135709 256.756 78.7024)" fill="#E7E7E7"/>
<rect width="50.9075" height="7.57837" transform="matrix(0.999908 0.0135709 0.013764 -0.999905 235.522 57.6687)" fill="#E7E7E7"/>
<rect x="24.9199" y="268.528" width="9.98321" height="7.06523" transform="rotate(-134.726 24.9199 268.528)" fill="#E7E7E7"/>
<rect x="46.4561" y="247.197" width="37.3614" height="7.06523" transform="rotate(-134.726 46.4561 247.197)" fill="#E7E7E7"/>
<rect x="49.1855" y="282.988" width="37.3608" height="7.06523" transform="rotate(45.2744 49.1855 282.988)" fill="#E7E7E7"/>
<rect x="70.7217" y="261.656" width="37.3608" height="7.06523" transform="rotate(45.2744 70.7217 261.656)" fill="#E7E7E7"/>
<rect x="44.1787" y="287.922" width="45.744" height="7.06523" transform="rotate(-89.7256 44.1787 287.922)" fill="#E7E7E7"/>
<rect width="45.744" height="7.06524" transform="matrix(0.999988 0.00478972 0.00478972 -0.999988 24.9326 268.49)" fill="#E7E7E7"/>
<rect x="440.117" y="519.13" width="37.3614" height="7.06523" transform="rotate(-89.1553 440.117 519.13)" fill="#E7E7E7"/>
<rect x="470.426" y="519.577" width="37.3614" height="7.06523" transform="rotate(-89.1553 470.426 519.577)" fill="#E7E7E7"/>
<rect x="446.777" y="546.582" width="30.751" height="7.06523" transform="rotate(90.8447 446.777 546.582)" fill="#E7E7E7"/>
<rect x="477.088" y="547.028" width="29.6855" height="7.06523" transform="rotate(90.8447 477.088 547.028)" fill="#E7E7E7"/>
<rect x="439.75" y="546.46" width="45.744" height="7.06523" transform="rotate(-44.1553 439.75 546.46)" fill="#E7E7E7"/>
<rect width="45.744" height="7.06523" transform="matrix(0.696606 0.717454 0.717454 -0.696606 440.152 519.113)" fill="#E7E7E7"/>
<rect x="142.021" y="519.06" width="37.3614" height="7.06523" transform="rotate(-89.1553 142.021 519.06)" fill="#E7E7E7"/>
<rect x="172.329" y="519.507" width="37.3614" height="7.06523" transform="rotate(-89.1553 172.329 519.507)" fill="#E7E7E7"/>
<rect x="148.682" y="546.512" width="30.751" height="7.06523" transform="rotate(90.8447 148.682 546.512)" fill="#E7E7E7"/>
<rect x="178.991" y="546.959" width="29.6855" height="7.06523" transform="rotate(90.8447 178.991 546.959)" fill="#E7E7E7"/>
<rect x="141.653" y="546.391" width="45.744" height="7.06523" transform="rotate(-44.1553 141.653 546.391)" fill="#E7E7E7"/>
<rect width="45.744" height="7.06523" transform="matrix(0.696606 0.717454 0.717454 -0.696606 142.057 519.043)" fill="#E7E7E7"/>
<rect x="333.806" y="578.344" width="39.6645" height="7.50075" transform="rotate(-136.633 333.806 578.344)" fill="#E7E7E7"/>
<rect x="355.903" y="554.95" width="39.6645" height="7.50075" transform="rotate(-136.633 355.903 554.95)" fill="#E7E7E7"/>
<rect x="354.309" y="576.609" width="26.922" height="7.50076" transform="rotate(-91.6325 354.309 576.609)" fill="#E7E7E7"/>
<rect x="103.57" y="445.832" width="37.3614" height="7.06523" transform="rotate(0.15015 103.57 445.832)" fill="#E7E7E7"/>
<rect x="103.492" y="476.143" width="37.3614" height="7.06523" transform="rotate(0.15015 103.492 476.143)" fill="#E7E7E7"/>
<rect x="76.2031" y="452.825" width="57.3736" height="7.06523" transform="rotate(-179.85 76.2031 452.825)" fill="#E7E7E7"/>
<rect x="76.123" y="483.136" width="57.2943" height="7.06523" transform="rotate(-179.85 76.123 483.136)" fill="#E7E7E7"/>
<rect x="76.2393" y="445.795" width="45.744" height="7.06523" transform="rotate(45.1501 76.2393 445.795)" fill="#E7E7E7"/>
<rect width="45.744" height="7.06524" transform="matrix(-0.708957 0.705251 0.705251 0.708957 103.589 445.867)" fill="#E7E7E7"/>
<rect x="45.6699" y="340.689" width="37.3614" height="7.06523" transform="rotate(-44.5236 45.6699 340.689)" fill="#E7E7E7"/>
<rect x="66.9258" y="362.301" width="37.3614" height="7.06523" transform="rotate(-44.5236 66.9258 362.301)" fill="#E7E7E7"/>
<rect x="31.126" y="364.904" width="10.3914" height="7.06523" transform="rotate(135.476 31.126 364.904)" fill="#E7E7E7"/>
<rect x="52.3799" y="386.515" width="37.3608" height="7.06523" transform="rotate(135.476 52.3799 386.515)" fill="#E7E7E7"/>
<rect x="26.209" y="359.879" width="45.744" height="7.06523" transform="rotate(0.476371 26.209 359.879)" fill="#E7E7E7"/>
<rect width="45.744" height="7.06524" transform="matrix(-0.00831415 0.999965 0.999965 0.00831415 45.709 340.702)" fill="#E7E7E7"/>
<rect x="257.172" y="553.558" width="37.3614" height="7.06523" transform="rotate(-44.5236 257.172 553.558)" fill="#E7E7E7"/>
<rect x="278.427" y="575.17" width="37.3614" height="7.06523" transform="rotate(-44.5236 278.427 575.17)" fill="#E7E7E7"/>
<rect x="237.71" y="572.749" width="45.744" height="7.06523" transform="rotate(0.476371 237.71 572.749)" fill="#E7E7E7"/>
<rect x="334.071" y="571.266" width="45.744" height="7.06523" transform="rotate(0.476371 334.071 571.266)" fill="#E7E7E7"/>
<rect width="23.259" height="7.06524" transform="matrix(-0.00831415 0.999965 0.999965 0.00831415 257.21 553.571)" fill="#E7E7E7"/>
</g>
</svg>
