<svg width="921" height="290" viewBox="0 0 921 290" fill="none" xmlns="http://www.w3.org/2000/svg">
<path d="M902.358 265.264C886.56 265.89 876.152 266.13 869.172 262.96C862.192 259.79 798.132 196.547 798.132 196.547C798.132 196.547 791.257 183.613 805.264 170.392C819.27 157.172 831.466 165.519 831.466 165.519L883.317 221.222L917.076 256.925C917.076 256.925 918.155 264.638 902.358 265.264Z" fill="#219EBC"/>
<path d="M652.224 67.7788C648.994 65.1868 642.24 63.4588 642.24 63.4588L664.411 52.918C664.411 52.918 669.589 56.5082 673.22 57.5836C675.738 58.3291 679.68 58.6204 679.68 58.6204L657.51 74.518C657.51 74.518 655.454 70.3708 652.224 67.7788Z" fill="#219EBC"/>
<rect x="209.158" y="255.686" width="253.858" height="45.36" rx="22.68" transform="rotate(-63.911 209.158 255.686)" fill="#2C8AA4"/>
<path d="M308.157 78.6614C301.497 78.6614 293.938 82.6213 293.938 82.6213L309.777 50.2212C309.777 50.2212 313.017 44.2811 317.157 40.1411C318.957 38.7011 322.017 36.8482 324.537 36.1811C330.657 34.561 336.777 35.641 338.217 36.3612C339.657 37.0813 335.337 115.921 335.337 115.921C335.337 115.921 323.097 93.6119 319.677 88.3814C316.257 83.1508 314.817 78.6614 308.157 78.6614Z" fill="#219EBC"/>
<path fill-rule="evenodd" clip-rule="evenodd" d="M469.787 268.493C481.471 267.619 490.68 257.863 490.68 245.955V85.9581C490.68 73.4756 480.561 63.3566 468.078 63.3566C455.596 63.3566 445.477 73.4757 445.477 85.9581V245.955C445.477 251.949 447.81 257.398 451.617 261.443C447.807 264.262 445.318 266.218 445.318 266.218C445.318 266.218 456.465 269.422 463.682 268.918C464.451 268.864 465.192 268.82 465.911 268.776C467.276 268.694 468.558 268.616 469.787 268.493Z" fill="url(#paint0_linear_10_3)"/>
<path fill-rule="evenodd" clip-rule="evenodd" d="M312.555 70.3579C306.947 59.1577 311.559 45.6927 322.856 40.2831C334.154 34.8735 347.858 39.5677 353.466 50.7679L447.427 238.419C447.666 238.896 447.887 239.378 448.089 239.863L448.15 239.779C451.799 245.16 460.374 253.711 467.639 256.86C477.261 261.029 489.779 252.36 489.779 252.36C489.779 252.36 488.856 262.036 475.379 267.84C461.903 273.643 425.519 270.774 425.519 270.774L425.587 270.681C417.699 270.118 410.282 265.53 406.516 258.009L312.555 70.3579Z" fill="#219EBC"/>
<ellipse cx="467.999" cy="26.64" rx="26.64" ry="26.64" fill="#F7A209"/>
<path fill-rule="evenodd" clip-rule="evenodd" d="M675.891 58.6468C663.561 52.0783 650.053 47.8501 636.052 46.247C615.173 43.8564 594.044 47.3997 575.088 56.4703C556.132 65.541 540.116 79.7715 528.879 97.5294C517.642 115.287 511.638 135.853 511.557 156.868C511.475 177.882 517.319 198.494 528.418 216.339C539.517 234.183 555.421 248.537 574.307 257.755C593.192 266.972 614.293 270.68 635.189 268.451C651.031 266.762 666.269 261.712 679.911 253.707C689.774 251.864 697.279 243.253 697.371 232.842C697.476 221.012 687.971 211.338 676.142 211.233C664.312 211.128 654.638 220.633 654.533 232.462C654.51 235.03 654.94 237.497 655.749 239.786C656.007 241.413 654.553 243.53 651.897 245.463C650.973 246.135 649.511 246.718 647.982 247.195C642.82 248.191 637.501 248.689 632.068 248.641C584.75 248.222 554.677 206.612 555.129 155.616C555.581 104.62 586.386 63.549 633.704 63.9684C642.636 64.0475 651.236 65.597 659.308 68.4017C657.176 71.6968 655.924 75.6165 655.886 79.8313C655.782 91.6607 665.286 101.335 677.116 101.44C688.945 101.545 698.62 92.0404 698.725 80.2109C698.83 68.3814 689.325 58.7068 677.495 58.6019C676.956 58.5971 676.421 58.6124 675.891 58.6468Z" fill="#219EBC"/>
<path d="M399.599 244.077C382.139 231.777 301.319 187.528 285.479 203.037C283.529 203.465 282.547 204.817 282.569 203.037C282.626 198.354 294.869 174.871 300.419 170.637C302.883 168.758 291.208 189.26 293.399 188.637C303.479 185.771 318.324 189.758 328.077 193.252C337.437 196.604 382.209 221.401 383.759 222.657C385.309 223.914 386.232 222.75 385.379 219.237C380.879 200.697 398.099 242.178 399.599 244.077Z" fill="url(#paint1_linear_10_3)"/>
<path d="M656.458 72.5389C658.138 70.3189 660.274 64.7629 655.378 60.2989C650.482 55.8349 631.018 48.5989 621.898 45.5389C621.898 45.5389 633.598 44.639 650.338 48.4189C661.302 50.8945 669.949 55.7637 673.6 57.9191C674.084 57.9045 674.496 58.0286 674.818 58.3189C676.061 59.437 675.524 59.0547 673.6 57.9191C668.692 58.068 656.458 72.5389 656.458 72.5389Z" fill="#219EBC"/>
<path d="M727.197 58.1527C727.197 45.6269 737.351 35.4727 749.877 35.4727C762.403 35.4727 772.557 45.6268 772.557 58.1526V246.073C772.557 258.598 762.403 268.753 749.877 268.753C737.351 268.753 727.197 258.598 727.197 246.073V58.1527Z" fill="#219EBC"/>
<path d="M870.52 48.5353C877.922 38.4301 892.114 36.2383 902.219 43.6398C912.324 51.0412 914.516 65.2332 907.114 75.3384L773.595 257.632C766.193 267.737 752.002 269.929 741.896 262.528C731.791 255.126 729.599 240.934 737.001 230.829L870.52 48.5353Z" fill="#219EBC"/>
<path d="M774.719 213.852C773.819 215.652 772.559 219.252 772.559 219.252L772.379 213.312L786.779 198.732C786.779 198.732 775.619 212.052 774.719 213.852Z" fill="#219EBC"/>
<path d="M744.453 203.399C725.12 203.399 727.268 191.687 727.268 191.687L727.268 54.5611C727.268 54.5611 731.027 35.4607 750.181 35.2805C769.335 35.1003 772.557 54.5608 772.557 54.5608V157.27V182.317C772.557 182.317 763.786 203.399 744.453 203.399Z" fill="#2C8AA4"/>
<path d="M45.2033 163.385C40.0363 158.015 43.2278 144.404 43.2278 144.404L40.879 139.183L18.5544 213.924C18.5544 213.924 39.3823 206.387 68.1276 181.594C96.8728 156.801 137.955 139.35 148.994 148.263C160.032 157.176 155.516 181.247 164.996 154.107C174.477 126.968 182.715 51.7361 175.999 71.8899C169.284 92.0437 166.079 89.7656 148.439 108.558C124.532 134.029 82.1293 153.394 69.2681 161.275C56.4068 169.156 51.7439 170.184 45.2033 163.385Z" fill="#219EBC"/>
<rect x="157.518" y="33.3281" width="45.9432" height="236.279" rx="22.9716" fill="#219EBC"/>
<rect y="33.3281" width="45.9432" height="236.279" rx="22.9716" fill="#219EBC"/>
<defs>
<linearGradient id="paint0_linear_10_3" x1="467.999" y1="63.3566" x2="467.999" y2="268.972" gradientUnits="userSpaceOnUse">
<stop stop-color="#2C8AA4"/>
<stop offset="0.9998" stop-color="#2C8AA4"/>
</linearGradient>
<linearGradient id="paint1_linear_10_3" x1="336.329" y1="189.717" x2="395.639" y2="189.717" gradientUnits="userSpaceOnUse">
<stop stop-color="#2C8AA4"/>
<stop offset="1" stop-color="#219EBC"/>
</linearGradient>
</defs>
</svg>
