<svg width="43" height="43" viewBox="0 0 43 43" fill="none" xmlns="http://www.w3.org/2000/svg">
<path d="M22.3359 42.1318C22.0488 42.1437 21.7598 42.1523 21.4697 42.1523C21.0982 42.1523 20.729 42.1414 20.3623 42.1221L21.3242 41.1768L22.3359 42.1318ZM24.8652 40.999L24.8896 41.8682C24.3183 41.9632 23.7394 42.0358 23.1533 42.083L21.7295 40.7393L23.1182 39.3496L24.8652 40.999ZM20.9082 40.7666L20.9033 40.7725L20.918 40.7871L19.6152 42.0684C18.9889 42.0127 18.3707 41.9296 17.7617 41.8193L17.7666 41.293L19.6152 39.4736L20.9082 40.7666ZM28.9756 35.5488L28.9922 35.5312L28.9932 35.5459L31.7832 35.5303L31.7422 38.3252H31.748L32.4189 39.0166C30.3278 40.3242 27.9872 41.2693 25.4834 41.7617L25.4551 40.7441L25.459 40.7402L23.54 38.9277L25.4375 37.0322L25.4189 37.0137L25.4453 37.0146L25.4502 35.3564L26.9395 35.2266L26.9492 35.2363L26.96 35.2246H26.9629L26.9619 35.2227L27.8125 34.3721L28.9756 35.5488ZM15.915 35.3066V35.3213H15.9316L15.9365 35.3252L15.9395 35.3213L17.1377 35.3281L17.1191 36.9844H17.1484L17.1377 36.9961L19.2188 39.0771L17.2002 41.0625L17.2061 41.0693L17.2012 41.71C14.7515 41.1959 12.4618 40.2483 10.415 38.9512L11.0215 38.3633L11.0205 38.3613L11.0625 35.4971L13.5791 35.5117V35.4854L13.5977 35.5049L14.7783 34.3428L15.915 35.3066ZM22.8262 38.8467L21.3047 40.3691L19.998 39.0625L21.5195 37.54L22.8262 38.8467ZM34.1611 35.5186H34.1924L34.1582 37.8027C33.7513 38.1193 33.3317 38.4201 32.9014 38.7061L32.3066 38.0938L32.3447 35.5264L34.1611 35.5176V35.5186ZM19.3203 35.3398L21.1221 37.1426L19.6006 38.665L17.6895 36.7539L17.7061 35.3311L19.3203 35.3398ZM10.501 35.4941L10.4619 38.123L9.93262 38.6367C9.48255 38.3336 9.04508 38.0134 8.62109 37.6768L8.6543 35.4844L10.501 35.4941ZM24.877 36.7969L23.2236 38.4492L21.917 37.1426L23.5342 35.5254L24.8818 35.4062L24.877 36.7969ZM36.6953 35.4648C36.0808 36.1331 35.4235 36.7611 34.7266 37.3438L34.7539 35.5146H34.7588L34.7578 35.4482L36.6953 35.4648ZM7.89844 35.4775V35.4805L8.09277 35.4814L8.06641 37.2197C7.42672 36.6748 6.82087 36.0916 6.25195 35.4736L7.89844 35.4775ZM21.3857 27.8789L21.3896 27.874L24.8945 31.4199L24.8838 34.8428L23.291 34.9834V34.9893L23.2842 34.9824L21.5195 36.7451L19.5654 34.791L19.5537 34.8018L19.5547 34.7803L17.7119 34.7695L17.749 31.4229L21.3711 27.8643L21.3857 27.8789ZM31.7568 34.9688L29.2148 34.9824L28.2139 33.9697L29.3564 32.8271L31.7793 32.8135L31.7568 34.9688ZM34.1816 32.8682H34.1885L34.167 34.9561L32.3184 34.9658L32.3408 32.8105L34.1816 32.8018V32.8682ZM13.3115 33.0996L14.3438 33.9746L13.3535 34.9482L11.1504 34.9355L11.1436 33.0879L13.3115 33.0996ZM10.582 33.084L10.5879 34.9326L8.43555 34.9209L8.42871 33.0732L10.582 33.084ZM7.86621 33.0684L7.87305 34.915L5.75098 34.9102C5.38476 34.4822 5.03589 34.0391 4.70508 33.582L5.22754 33.0615L7.86621 33.0684ZM37.1055 32.8916L38.0449 33.8418C37.9538 33.9636 37.8613 34.0843 37.7676 34.2041L37.0977 34.8662L34.7305 34.8477L34.751 32.8721L37.1055 32.8916ZM27.417 33.9727L26.707 34.6826L25.4521 34.793L25.4609 31.9932L27.417 33.9727ZM17.1436 34.7666L16.1377 34.7607L15.1807 33.9482L17.1748 31.9883L17.1436 34.7666ZM16.2988 26.1436V30.4258L17.1973 29.9062L17.1836 31.1836L14.7461 33.5801L13.5254 32.5449L13.5195 32.5498L13.5205 32.54L11.1416 32.5264L11.1328 29.7949H11.1182L11.1357 29.7783L9.83496 28.4727L12.2188 26.124L16.2988 26.1436ZM30.4697 26.2539L32.8564 28.708L31.8164 29.9229L31.8203 29.9268H31.8105L31.7852 32.2529L29.1377 32.2676V32.2822L29.123 32.2676L27.8193 33.5703L25.4629 31.1875L25.4785 26.1729L30.4697 26.2539ZM40.3428 25.917L40.3457 25.9121L41.6758 25.8975C41.0818 28.621 39.9513 31.1434 38.4004 33.3496L37.3574 32.2959L37.3584 32.2949L34.7578 32.2715L34.7832 29.8857L34.7568 29.8848L34.7764 29.8672L33.6201 28.6777L34.5908 27.5449L34.6045 27.5459V27.5303L34.6084 27.5264L34.6045 27.5225L34.6172 26.3232L36.2715 26.3506V26.3232L36.2832 26.335L38.4697 24.1709L38.4736 24.1748L38.5156 24.1318L40.3428 25.917ZM6.37695 26.0859L6.39648 26.0654V26.0947L8.04785 26.1025L8.17676 27.5918L8.1709 27.5986L8.17871 27.6064L8.17969 27.6152L8.18652 27.6143L9.03418 28.4648L7.85352 29.6279L7.87109 29.6455L7.85449 29.6465L7.86426 32.5068L4.99414 32.5V32.5029L4.37695 33.1162C2.97494 31.0624 1.93371 28.7431 1.34375 26.249L2.47656 26.2588L2.47754 26.2598L4.53418 24.2354L6.37695 26.0859ZM10.5703 30.0068L10.5801 32.5234L8.42676 32.5117L8.41699 29.8682L9.43457 28.8662L10.5703 30.0068ZM34.2178 30.1074L34.1953 32.2393L32.3467 32.25L32.3691 30.1396L33.249 29.1113L34.2178 30.1074ZM17.7588 30.6191L17.7705 29.5752L20.3135 28.1074L17.7588 30.6191ZM24.8965 30.6143L21.791 27.4727L22.3066 26.9561L23.668 26.1709H24.9111L24.8965 30.6143ZM34.0557 26.3135L34.0449 27.3213L33.2275 28.2744L31.2744 26.2676L34.0557 26.3135ZM11.4131 26.1191L9.43359 28.0703L8.7207 27.3535L8.61328 26.1055L11.4131 26.1191ZM38.0723 23.7734L36.0469 25.7783L34.623 25.7549L34.6396 24.1416L36.5498 22.25L38.0723 23.7734ZM34.2539 18.4932L34.3945 20.0869L34.4004 20.0859L34.3936 20.0938L36.1533 21.8535L34.0928 23.8936L34.1035 23.9043H34.0811L34.0615 25.7451L30.7129 25.6904L28.4785 23.3926L31.8105 21.4697L29.2832 20.0107L30.8301 18.4824L34.2539 18.4932ZM4.1377 23.8379L2.24902 25.6953L1.21777 25.6865C1.12612 25.244 1.05019 24.7961 0.987305 24.3438L2.83301 22.5283L4.1377 23.8379ZM29.9082 25.6768L25.5098 25.6055V25.1074L27.9707 23.6855L29.9082 25.6768ZM24.9404 25.5713H24.9131V25.5957L24.8418 25.5947V25.5986H24.6592L24.9404 25.4355V25.5713ZM16.2988 22.792V25.5752L12.793 25.5576L15.9531 22.4463L16.2988 22.792ZM11.9795 18.4521L15.5498 22.0459L11.9873 25.5537L8.56445 25.5371L8.42773 23.9443H8.42285L8.43066 23.9375L6.71387 22.2139L8.62109 20.2871L8.60938 20.2754H8.63379V18.4336L11.9795 18.4521ZM7.88379 24.1846L7.99902 25.5342L6.61328 25.5273L5.01855 23.9268L6.31836 22.6143L7.88379 24.1846ZM41.8574 24.0293L41.8672 24.8955C41.8427 25.0422 41.8176 25.1884 41.79 25.334L40.5654 25.3486L38.9121 23.7334L40.2246 22.4336L41.8574 24.0293ZM2.36035 22.0596L2.3623 22.0566L2.43652 22.1309L0.900391 23.6416C0.825937 22.928 0.788086 22.2031 0.788086 21.4697C0.788093 21.1433 0.796561 20.8188 0.811523 20.4961L2.36035 22.0596ZM5.92188 22.2158L4.62305 23.5293L3.10254 22.0039L4.40137 20.6904L5.92188 22.2158ZM42.123 20.3857C42.1416 20.7447 42.1523 21.1061 42.1523 21.4697C42.1523 22.134 42.1198 22.7912 42.0586 23.4395L40.542 21.958L42.123 20.3857ZM38.3936 20.7002L38.3994 20.6943L39.7051 22L39.6963 22.0098L39.7744 22.0889L38.4717 23.3779L36.9492 21.8555L38.2559 20.5615L38.3936 20.7002ZM8.07227 18.4297V20.043L6.31738 21.8164L4.79688 20.291L6.64648 18.4219L8.07227 18.4297ZM16.2988 18.4775V21.2969L15.9512 21.6445L12.7842 18.457L16.2988 18.4775ZM2.14551 18.418L4.00195 20.2939L2.70312 21.6084L0.859375 19.7471C0.896399 19.2982 0.947461 18.8534 1.0127 18.4131L2.14551 18.418ZM41.6377 18.7725L41.6338 20.0811L40.1035 21.6045L38.7969 20.2979L40.333 18.7695L41.6377 18.7725ZM36.2051 18.5L37.8643 20.1592L36.5518 21.458L34.9355 19.8418L34.8174 18.4951L36.2051 18.5ZM39.5898 11.4941C40.512 13.1655 41.2101 14.9775 41.6426 16.8906L41.6387 18.2109L40.1025 18.208V18.207L38.4023 19.8965L38.2686 19.7607L38.2637 19.7646L36.4404 17.9414L36.4219 17.959L36.4229 17.9326L34.7676 17.9268L34.6377 16.4385L34.6455 16.4316L34.6357 16.4219V16.416H34.6299L33.7803 15.5664L34.959 14.4023L34.9414 14.3848H34.957L34.9414 11.5176H37.4355V11.5146L38.5225 10.4268L39.5898 11.4941ZM4.78516 11.5508L4.78613 11.5488V11.5537L7.86816 11.5605V14.3076H7.88867L7.875 14.3213L9.04297 15.4971L8.08496 16.6396H8.07227V16.6543L8.06836 16.6592L8.07227 16.6621V17.8613L6.41504 17.8525L6.41406 17.8779L6.4043 17.8682L4.39844 19.8945L2.38184 17.8584L2.38281 17.8574L1.10352 17.8516C1.56593 15.2311 2.5223 12.7813 3.87207 10.6006L4.78516 11.5508ZM30.0244 18.4795L28.7725 19.7158L26.6113 18.4678L30.0244 18.4795ZM34.0938 16.6748L34.2031 17.9248L31.4033 17.916L33.3809 15.9619L34.0938 16.6748ZM29.1875 11.5127L29.1914 11.5078V11.5176H31.6602L31.6748 14.2422L31.6924 14.2412L31.6768 14.2578L32.9795 15.5605L30.5977 17.9131L25.6211 17.8965L25.5068 17.8301L25.5352 12.8945L27.9609 10.4844L29.1875 11.5127ZM17.3896 12.8477L17.3838 13.1406L16.2988 12.5146V17.9092L12.2168 17.8857L9.80664 15.46L10.834 14.2354H10.8398V11.6758L13.7354 11.708V11.6924L13.75 11.708L15.0732 10.4268L17.3896 12.8477ZM11.4121 17.8809L8.63379 17.8652V16.8584L9.43945 15.8965L11.4121 17.8809ZM24.9414 17.5039L22.3828 16.0264L24.9648 13.4609L24.9414 17.5039ZM23.1338 9.2998L23.1455 9.28711V9.31055H24.9893L24.9697 12.6562L21.8711 15.7314L19.7793 14.5234L17.9619 12.624L18.0283 9.20117L19.624 9.08789L19.623 9.08105L19.6309 9.08887L21.293 7.47852L23.1338 9.2998ZM34.3936 14.1621L33.3789 15.165L32.2344 14.0205L32.2217 11.5176H34.3799L34.3936 14.1621ZM10.2783 11.6699V14.0244L9.40918 15.0596L8.42969 14.0742V11.6504L10.2783 11.6699ZM18.0225 13.5098L17.9453 13.4648L17.9463 13.4297L18.0225 13.5098ZM27.5244 10.1172L25.54 12.0889L25.5566 9.31055H26.5625L27.5244 10.1172ZM17.4053 12.042L15.4814 10.0312L16.2041 9.33203L17.46 9.24219L17.4053 12.042ZM13.7012 8.99121L14.6855 10.0205L13.5244 11.1436L10.8398 11.1143V8.95996L13.7012 8.99121ZM10.2783 8.95312V11.1084L8.42969 11.0879V8.93359L10.2783 8.95312ZM7.86816 9.05273V10.9766L5.05176 10.9697L4.20117 10.0859C4.30274 9.93217 4.40619 9.77977 4.51172 9.62891L5.11816 9.0459L7.86816 9.05273ZM31.6572 10.9561H29.3984L28.3613 10.0859L29.3467 9.1084H31.6475L31.6572 10.9561ZM34.377 10.9561H32.2188L32.209 9.1084H34.3672L34.377 10.9561ZM38.126 10.0303L37.2012 10.9561H34.9385L34.9287 9.1084H37.2031L38.126 10.0303ZM27.1162 1.56738C29.1515 2.14361 31.0582 3.02551 32.7861 4.15723L31.623 5.32031L31.627 5.32422L31.6445 8.54688H29.1191V8.57324L29.0996 8.55371L27.9248 9.71973L26.7822 8.76172V8.74902H26.7666L26.7627 8.74609L26.7598 8.74902H25.5596L25.5693 7.09277L25.5439 7.0918L25.5547 7.08203L23.6494 5.19727L25.6016 3.30859L25.5566 3.26172L25.5664 3.25293L25.5791 1.71387L27.1152 1.72754L27.1162 1.56738ZM17.1885 1.66602L17.165 3.31543L17.1631 3.31836L17.2002 3.35547L17.1641 3.39355L19.1797 5.3877L17.5107 7.00391L17.5283 7.02246H17.5039L17.4707 8.67773L15.9814 8.78516L15.9727 8.77539L15.96 8.78613L15.9561 8.78711V8.79102L15.0938 9.62598L13.9492 8.42969L13.9287 8.44824L13.9297 8.43262L10.8398 8.39844V8.39453H10.8633L10.8193 5.4248H10.8145L10.8164 5.42383L9.77344 4.41113C11.5276 3.20608 13.4771 2.2654 15.5645 1.64453L17.1885 1.66602ZM34.9102 5.75098C36.1406 6.80397 37.2453 7.99904 38.2002 9.31055L37.4365 8.54688L37.4355 8.54785V8.54688H34.9258L34.9102 5.75098ZM25 7.32324L24.9922 8.74902H23.375L21.6963 7.08789L23.2461 5.58789L25 7.32324ZM20.8936 7.08398L19.3887 8.54102L18.04 8.63672L18.0664 7.24707L19.5791 5.7832L20.8936 7.08398ZM33.2646 4.48047L34.3477 5.5625L34.3643 8.54688H32.2061L32.1895 5.54785L33.2598 4.47754C33.2613 4.47862 33.2631 4.47939 33.2646 4.48047ZM7.88965 8.36621H7.86914L7.86719 8.46875L5.39062 8.46289C6.13734 7.54095 6.96139 6.68432 7.85352 5.90332L7.88965 8.36621ZM10.2607 5.66602L10.3018 8.38379H10.2783V8.39258L8.45215 8.37207L8.41211 5.69336L9.32227 4.75488L10.2607 5.66602ZM22.8467 5.19336L21.2969 6.69336L19.9824 5.39258L21.5322 3.89258L22.8467 5.19336ZM19.2656 1.69434L21.1074 3.51953L19.6562 4.9248L17.7939 3.08008L17.8135 1.6748L19.2656 1.69434ZM25.0176 1.70898L25.0059 3.01562L23.2197 4.77344L21.9355 3.50195L23.7979 1.69922L25.0176 1.70898ZM21.4697 0.788086C22.7923 0.788086 24.0863 0.913112 25.3398 1.15039L23.4844 1.13574L23.4834 1.13477L21.5195 3.06348L19.5342 1.09668H19.5322L19.5332 1.0957L18.0254 1.0752C19.1456 0.887367 20.2961 0.788113 21.4697 0.788086Z" fill="#2B383B"/>
</svg>
