<svg width="197" height="55" viewBox="0 0 197 55" fill="none" xmlns="http://www.w3.org/2000/svg">
<path d="M67.9719 23.5242L71.3289 21.5236C71.0673 21.2111 68.5605 18.4395 64.5277 18.6479C61.0618 18.8354 59.0127 21.1277 58.6857 21.5236C58.3369 22.0029 57.3778 23.5033 57.4868 25.5872C57.574 27.2751 58.3151 28.463 58.6857 28.9839C58.9255 29.2757 61.4105 32.1097 65.4433 31.9013C68.9747 31.7346 71.0237 29.359 71.3507 28.9839C70.3262 28.3379 69.2798 27.6711 68.2553 27.0251C68.1027 27.1918 66.882 28.4421 65.0073 28.3171C63.6776 28.2337 62.8057 27.5044 62.5659 27.2751C62.4351 27.1709 61.6721 26.5249 61.6067 25.4205C61.5631 24.3369 62.2389 23.6284 62.3479 23.5033C62.6095 23.2324 63.3288 22.5447 64.5059 22.3572C66.4242 22.0029 67.8411 23.3783 67.9719 23.5242Z" fill="#219EBC"/>
<path d="M102.721 20.5434C100.433 18.397 97.5115 18.5845 97.0756 18.6262C96.6396 18.6262 93.4788 18.6054 91.2771 21.0852C89.5115 23.0857 89.5551 25.3571 89.5769 25.9198C89.7076 26.5241 90.209 28.5663 92.2363 30.1709C94.2418 31.7754 96.4434 31.9005 97.0974 31.9005C97.5333 31.9213 100.716 32.0672 103.005 29.6916C104.705 27.9411 104.879 25.8781 104.901 25.2738C104.858 24.7528 104.727 22.4188 102.721 20.5434ZM100.106 27.4618C98.972 28.6496 97.3808 28.5871 97.1628 28.5663C96.8358 28.5663 95.7459 28.5038 94.7431 27.691C93.7404 26.8783 93.4788 25.8572 93.4134 25.5655C93.3916 25.2946 93.3916 24.1485 94.2636 23.1482C95.3535 21.9187 96.9448 21.9187 97.1628 21.9187C97.3808 21.8979 98.8413 21.8145 99.9966 22.8773C100.999 23.815 101.065 24.982 101.065 25.2321C101.043 25.5655 100.934 26.5866 100.106 27.4618Z" fill="#219EBC"/>
<path d="M119.834 20.5648C117.545 18.4184 114.624 18.606 114.188 18.6477C113.752 18.6477 110.591 18.6268 108.389 21.1066C106.624 23.1072 106.667 25.3786 106.689 25.9412C106.82 26.5456 107.321 28.5878 109.349 30.1923C111.354 31.7969 113.556 31.922 114.21 31.922C114.646 31.9428 117.828 32.0887 120.117 29.7131C121.817 27.9626 121.992 25.8996 122.014 25.2952C121.948 24.7534 121.817 22.4195 119.834 20.5648ZM117.196 27.4625C116.062 28.6503 114.471 28.5878 114.253 28.5669C113.926 28.5669 112.836 28.5044 111.834 27.6917C110.831 26.879 110.569 25.8579 110.504 25.5661C110.482 25.2952 110.482 24.1491 111.354 23.1488C112.444 21.9194 114.035 21.9194 114.253 21.9194C114.471 21.8985 115.932 21.8152 117.087 22.8779C118.09 23.8157 118.155 24.9827 118.155 25.2327C118.133 25.5661 118.046 26.5872 117.196 27.4625Z" fill="#219EBC"/>
<path d="M152.225 20.5648C149.936 18.4184 147.015 18.606 146.579 18.6477C146.143 18.6477 142.982 18.6268 140.78 21.1066C139.015 23.1072 139.058 25.3786 139.08 25.9412C139.211 26.5456 139.712 28.5878 141.74 30.1923C143.745 31.7969 145.947 31.922 146.601 31.922C147.037 31.9428 150.219 32.0887 152.508 29.7131C154.208 27.9626 154.383 25.8996 154.405 25.2952C154.361 24.7534 154.23 22.4195 152.225 20.5648ZM149.609 27.4625C148.475 28.6503 146.884 28.5878 146.666 28.5669C146.339 28.5669 145.249 28.5044 144.246 27.6917C143.244 26.879 142.982 25.8579 142.917 25.5661C142.895 25.2952 142.895 24.1491 143.767 23.1488C144.857 21.9194 146.448 21.9194 146.666 21.9194C146.884 21.8985 148.345 21.8152 149.5 22.8779C150.503 23.8157 150.568 24.9827 150.568 25.2327C150.546 25.5661 150.459 26.5872 149.609 27.4625Z" fill="#219EBC"/>
<path d="M73.6191 13.8948V31.4827H77.63V24.0224C78.1532 22.7096 79.7445 22.1886 80.9434 22.5012C82.1205 22.793 82.7091 23.7724 82.7309 24.0224C82.7309 26.5023 82.7309 29.0029 82.7309 31.4827H87.0252C87.0252 28.8987 87.0252 26.3147 87.0252 23.7307C87.0252 23.3139 86.3931 20.8133 83.8208 19.4379C80.7472 17.7708 77.63 19.3337 77.412 19.4379C77.412 17.229 77.412 15.0409 77.412 12.832L73.6191 13.8948Z" fill="#219EBC"/>
<path d="M128.966 13.082L124.998 14.2282V31.8994H128.966V13.082Z" fill="#219EBC"/>
<path d="M196.257 18.6055V31.9006H192.137V19.6266L196.257 18.6055Z" fill="#219EBC"/>
<path d="M184.51 18.7303V19.3346C182.809 18.6261 181.24 18.7094 180.935 18.7511C180.499 18.7511 177.338 18.7303 175.136 21.2101C173.371 23.2106 173.414 25.482 173.436 26.0447C173.567 26.649 174.068 28.6912 176.096 30.2958C178.101 31.9004 180.303 32.0254 180.957 32.0254C181.262 32.0463 182.831 32.1088 184.532 31.4003V31.9212H188.76V25.3987V18.7303H184.51ZM184.51 26.8366C184.379 27.0866 184.205 27.3575 183.965 27.6076C182.831 28.7954 181.24 28.7329 181.022 28.7121C180.695 28.7121 179.605 28.6495 178.602 27.8368C177.6 27.0241 177.338 26.003 177.273 25.7113C177.251 25.4404 177.251 24.2942 178.123 23.294C179.213 22.0645 180.804 22.0645 181.022 22.0645C181.24 22.0436 182.7 21.9603 183.856 23.0231C184.161 23.3148 184.379 23.6066 184.532 23.8983C184.88 24.5651 184.924 25.1903 184.924 25.357C184.902 25.5862 184.837 26.1906 184.51 26.8366Z" fill="#219EBC"/>
<path d="M165.61 22.0426V18.8542H161.381C161.381 18.5208 161.469 17.458 162.297 16.5203C163.539 15.1449 165.392 15.2491 165.589 15.27V11.769C164.782 11.7274 162.929 11.7482 160.967 12.811C158.417 14.2072 157.458 16.4578 157.174 17.2288C157.152 17.2913 157.131 17.3538 157.131 17.4372V31.9201H161.49V22.0634H165.61V22.0426Z" fill="#219EBC"/>
<path d="M24.2868 31.4421C24.5701 31.1504 25.4639 30.3377 26.9026 30.1293C27.8617 29.9834 28.6465 30.171 29.0606 30.296C31.4803 36.4643 33.8999 42.6117 36.3196 48.78H32.2868L30.6955 44.3622H23.2404L21.6491 48.78H17.6382L24.2868 31.4421ZM29.5184 41.1738L27.7963 36.5476L27.0988 34.297H26.8808L26.1832 36.5476L24.4611 41.1738H29.5184Z" fill="#219EBC"/>
<path d="M38.1513 48.7789V31.4411L41.6827 30.2949V48.7789H38.1513Z" fill="#219EBC"/>
<path d="M50.6852 54.7823C49.7478 54.7823 48.9195 54.6573 48.1783 54.428C47.459 54.1988 46.805 53.8862 46.2818 53.532C45.7369 53.1569 45.3009 52.7609 44.9303 52.3025C44.5598 51.8649 44.32 51.4064 44.1456 50.9688L47.5244 49.6768C47.7859 50.3436 48.2001 50.8646 48.7669 51.2397C49.3336 51.6148 49.9876 51.8024 50.6852 51.8024C51.7969 51.8024 52.6906 51.4481 53.3228 50.7604C53.9767 50.0727 54.3037 49.1142 54.3037 47.9055V47.0303H54.0857C53.6716 47.5721 53.1266 48.0097 52.4508 48.3431C51.7751 48.6557 50.9685 48.8224 50.053 48.8224C49.2683 48.8224 48.4835 48.6765 47.7424 48.364C47.0012 48.0514 46.3254 47.6138 45.7587 47.0511C45.1919 46.4885 44.7123 45.8008 44.3636 44.9881C43.993 44.1962 43.8186 43.3001 43.8186 42.2999C43.8186 41.2996 43.993 40.4036 44.3636 39.6117C44.7341 38.799 45.1919 38.1113 45.7587 37.5486C46.3254 36.986 47.0012 36.5484 47.7424 36.2358C48.4835 35.9232 49.2683 35.7773 50.053 35.7773C50.9685 35.7773 51.7751 35.9441 52.4508 36.2566C53.1266 36.5692 53.6716 37.0068 54.0857 37.5695H54.3037V36.1941H57.6825V47.9472C57.6825 49.01 57.5081 49.9685 57.1593 50.8229C56.8106 51.6773 56.331 52.4067 55.7206 52.9902C55.1103 53.5737 54.3691 54.0321 53.519 54.3655C52.6688 54.6156 51.7315 54.7823 50.6852 54.7823ZM50.816 45.7383C51.2519 45.7383 51.6661 45.6549 52.1021 45.509C52.5162 45.3632 52.9086 45.1339 53.2138 44.8422C53.5408 44.5505 53.8024 44.1754 53.9985 43.7586C54.1947 43.321 54.3037 42.8417 54.3037 42.279C54.3037 41.7164 54.1947 41.2163 53.9985 40.7786C53.8024 40.341 53.5408 39.9659 53.2138 39.6742C52.8868 39.3824 52.5162 39.1532 52.1021 39.0074C51.6879 38.8615 51.2519 38.7781 50.816 38.7781C50.38 38.7781 49.9658 38.8615 49.5516 39.0074C49.1375 39.1532 48.7669 39.3825 48.4399 39.695C48.1129 40.0076 47.8513 40.3619 47.6552 40.7995C47.459 41.2371 47.35 41.7164 47.35 42.279C47.35 42.8417 47.459 43.321 47.6552 43.7586C47.8513 44.1962 48.1129 44.5505 48.4399 44.8422C48.7669 45.1339 49.1375 45.3632 49.5516 45.509C49.9658 45.6549 50.38 45.7383 50.816 45.7383Z" fill="#219EBC"/>
<path d="M60.9095 48.78V37.277L64.4409 36.1309V48.78H60.9095Z" fill="#219EBC"/>
<path d="M80.0916 45.737C79.4812 46.7789 78.6529 47.6125 77.6283 48.2376C76.582 48.8836 75.3177 49.1962 73.8354 49.1962C72.8326 49.1962 71.8953 49.0295 71.0451 48.6961C70.195 48.3627 69.4538 47.8834 68.8217 47.279C68.1895 46.6747 67.71 45.9662 67.3394 45.1535C66.9906 44.3408 66.8162 43.4447 66.8162 42.4653C66.8162 41.5484 66.9906 40.694 67.3394 39.8813C67.6882 39.0686 68.1677 38.3601 68.7781 37.7349C69.3885 37.1306 70.1078 36.6304 70.958 36.2762C71.7863 35.9219 72.7236 35.7344 73.7264 35.7344C74.7945 35.7344 75.7318 35.9011 76.5602 36.2345C77.3885 36.5679 78.0861 37.0264 78.6311 37.6307C79.1978 38.2142 79.612 38.9227 79.8954 39.7354C80.1788 40.5481 80.3314 41.4234 80.3314 42.3611C80.3314 42.4861 80.3314 42.5903 80.3314 42.6737C80.3096 42.7779 80.3096 42.8821 80.3096 42.9654C80.2878 43.0488 80.2878 43.153 80.2878 43.2572H70.3258C70.3912 43.7781 70.5438 44.2158 70.7618 44.5908C70.9797 44.9659 71.2631 45.2785 71.5901 45.5286C71.9171 45.7787 72.2877 45.9662 72.68 46.0704C73.0724 46.1746 73.4866 46.2371 73.9008 46.2371C74.7073 46.2371 75.3831 46.0704 75.9062 45.7161C76.4294 45.3619 76.8654 44.9243 77.1706 44.3825L80.0916 45.737ZM76.8654 40.8399C76.8436 40.6106 76.7782 40.3606 76.6256 40.0897C76.4948 39.8188 76.2986 39.5479 76.037 39.3186C75.7754 39.0686 75.4485 38.881 75.0561 38.7352C74.6637 38.5893 74.2059 38.5059 73.661 38.5059C72.898 38.5059 72.2441 38.7143 71.6555 39.1311C71.0887 39.5479 70.6746 40.1314 70.4348 40.8607H76.8654V40.8399Z" fill="#219EBC"/>
<path d="M82.5751 36.1303H85.8885V37.8808H86.1064C86.259 37.5682 86.477 37.2973 86.7604 37.0264C87.022 36.7763 87.3272 36.5471 87.6541 36.3595C87.9811 36.172 88.3517 36.0053 88.7441 35.9011C89.1364 35.7761 89.507 35.7344 89.8994 35.7344C90.3572 35.7344 90.7713 35.7761 91.0983 35.8802C91.4253 35.9844 91.7087 36.1095 91.9485 36.2553L91.0111 39.277C90.7931 39.1728 90.5534 39.0894 90.2918 39.0269C90.0302 38.9644 89.7032 38.9435 89.3326 38.9435C88.8531 38.9435 88.3953 39.0269 88.0029 39.2144C87.6105 39.402 87.2618 39.6521 87.0002 39.9855C86.7168 40.3189 86.4988 40.694 86.3462 41.1316C86.1936 41.5692 86.1064 42.0485 86.1064 42.5695V48.8003H82.5751V36.1303Z" fill="#219EBC"/>
<path d="M98.2494 49.1975C97.3775 49.1975 96.6145 49.0933 95.9388 48.8849C95.263 48.6766 94.6745 48.4057 94.1731 48.0722C93.6717 47.7388 93.2576 47.3429 92.9088 46.9053C92.56 46.4676 92.2984 46.03 92.124 45.5716L95.2848 44.2796C95.59 44.9256 96.0042 45.4257 96.5055 45.7383C97.0287 46.0509 97.5955 46.2176 98.2276 46.2176C98.8816 46.2176 99.383 46.1134 99.7753 45.8842C100.146 45.6549 100.342 45.384 100.342 45.0923C100.342 44.738 100.19 44.4671 99.8625 44.2587C99.5573 44.0503 99.0124 43.842 98.2276 43.6753L96.3747 43.2793C95.9606 43.196 95.5246 43.0501 95.0886 42.8625C94.6527 42.675 94.2385 42.4249 93.8897 42.1332C93.5191 41.8414 93.2358 41.4872 92.996 41.0704C92.7562 40.6536 92.6472 40.1743 92.6472 39.6325C92.6472 39.0074 92.778 38.4656 93.0614 37.9863C93.3447 37.507 93.7153 37.0902 94.2167 36.7568C94.6963 36.4234 95.2848 36.1733 95.9388 35.9857C96.5927 35.7982 97.3121 35.7148 98.0532 35.7148C99.3176 35.7148 100.429 35.9441 101.432 36.4234C102.413 36.9027 103.154 37.6529 103.612 38.674L100.56 39.8618C100.298 39.3616 99.9497 39.0074 99.4484 38.7781C98.9688 38.5489 98.4674 38.4447 97.9879 38.4447C97.4865 38.4447 97.0505 38.5489 96.6581 38.7365C96.2876 38.9449 96.0914 39.1949 96.0914 39.5075C96.0914 39.7992 96.244 40.0285 96.5709 40.1952C96.8761 40.3619 97.3121 40.5286 97.8571 40.6536L99.8843 41.1121C101.236 41.4247 102.239 41.9248 102.893 42.5916C103.546 43.2793 103.873 44.0712 103.873 45.0089C103.873 45.5507 103.743 46.0926 103.459 46.5927C103.198 47.0928 102.805 47.5304 102.304 47.9264C101.803 48.3223 101.214 48.614 100.516 48.8433C99.8843 49.0933 99.0996 49.1975 98.2494 49.1975Z" fill="#219EBC"/>
<path d="M50.3832 32.1721C49.5112 32.1721 48.7483 32.0679 48.0725 31.8596C47.3967 31.6512 46.8082 31.3803 46.3068 31.0468C45.8055 30.7134 45.3913 30.3175 45.0425 29.8799C44.6937 29.4423 44.4321 29.0046 44.2578 28.5462L47.4185 27.2542C47.7237 27.9002 48.1379 28.4003 48.6393 28.7129C49.1624 29.0255 49.7292 29.1922 50.3614 29.1922C51.0153 29.1922 51.5167 29.088 51.9091 28.8588C52.2796 28.6295 52.4758 28.3586 52.4758 28.0669C52.4758 27.7126 52.3232 27.4417 51.9963 27.2333C51.6911 27.025 51.1461 26.8166 50.3614 26.6499L48.5085 26.2539C48.0943 26.1706 47.6583 26.0247 47.2224 25.8371C46.7864 25.6496 46.3722 25.3995 46.0234 25.1078C45.6529 24.8161 45.3695 24.4618 45.1297 24.045C44.8899 23.6282 44.7809 23.1489 44.7809 22.6071C44.7809 21.982 44.9117 21.4402 45.1951 20.9609C45.4785 20.4816 45.8491 20.0648 46.3504 19.7314C46.83 19.398 47.4185 19.1479 48.0725 18.9604C48.7265 18.7728 49.4458 18.6895 50.187 18.6895C51.4513 18.6895 52.563 18.9187 53.5658 19.398C54.5467 19.8773 55.2878 20.6275 55.7456 21.6486L52.6938 22.8364C52.4322 22.3362 52.0834 21.982 51.5821 21.7528C51.1025 21.5235 50.6011 21.4193 50.1216 21.4193C49.6202 21.4193 49.1842 21.5235 48.7919 21.7111C48.4213 21.9195 48.2251 22.1695 48.2251 22.4821C48.2251 22.7739 48.3777 23.0031 48.7047 23.1698C49.0098 23.3365 49.4458 23.5032 49.9908 23.6282L52.0181 24.0867C53.3696 24.3993 54.3723 24.8994 55.0263 25.5662C55.6802 26.2539 56.0072 27.0458 56.0072 27.9835C56.0072 28.5254 55.8764 29.0672 55.593 29.5673C55.3314 30.0674 54.9391 30.505 54.4377 30.901C53.9363 31.2969 53.3478 31.5886 52.6502 31.8179C51.9963 32.0471 51.2115 32.1721 50.3832 32.1721Z" fill="#219EBC"/>
<path d="M12.583 23.5232C11.7547 23.9817 10.8827 24.2942 9.90178 24.3776C8.33228 24.5026 6.98077 24.0859 5.78185 23.2315C5.23688 22.8355 4.62652 22.5021 4.08156 22.127C1.7927 20.4599 0.528384 18.3344 0.179606 15.8129C-0.212768 13.1038 0.59378 10.6449 2.53386 8.45678C3.64558 7.20646 5.08429 6.28955 6.80638 5.68523C6.98077 5.62271 7.15516 5.49768 7.26415 5.35181C8.79005 3.22625 10.9045 1.7467 13.8037 1.12154C15.3078 0.788119 16.8337 0.808957 18.3378 1.12154C18.4904 1.16322 18.7084 1.14238 18.861 1.07986C22.3924 -0.608079 26.6213 0.267149 29.0627 3.03871C29.2589 3.26793 29.4333 3.30961 29.7385 3.28877C31.9184 3.16374 33.7712 3.80974 35.21 5.1851C37.2372 7.08143 37.7604 9.33201 37.0192 11.791C36.9538 12.0202 36.9756 12.1661 37.1936 12.3328C40.8558 15.4586 39.8967 21.0017 35.2318 22.898C35.0792 22.9606 34.9702 23.1064 34.883 23.2315C33.6405 25.3362 31.7658 26.7949 29.0192 27.3784C27.8202 27.6284 26.5995 27.6284 25.4006 27.3784C25.1172 27.3159 24.9428 27.3575 24.7466 27.5243C22.1962 29.6498 19.6458 31.7754 17.0953 33.9009C17.0517 33.9426 17.0081 33.9634 16.8773 34.0676C17.4223 31.5878 17.9237 29.1914 18.4468 26.7532C15.9182 26.399 14.0217 25.2737 12.583 23.5232ZM3.49299 19.2721C3.62378 18.6261 3.73278 17.9801 3.84177 17.3549C3.86357 17.2507 3.84177 17.1049 3.77638 17.0215C3.384 16.4172 3.25321 15.792 3.3622 15.1044C3.53659 14.0416 4.49573 13.1872 5.71645 12.9996C6.78458 12.8329 7.93991 13.3331 8.52847 14.2291C9.5966 15.8337 8.52847 17.8759 6.4794 18.1676C6.15242 18.2093 5.80364 18.1676 5.45487 18.1676C5.08429 19.0846 5.43307 20.5016 6.26142 21.4185C7.54753 22.8355 9.74919 23.2106 11.4277 22.2937C11.6239 22.1895 11.7111 22.1062 11.6021 21.8978C10.7737 20.0223 10.7737 18.126 11.4931 16.2088C11.5367 16.1046 11.5149 15.9379 11.4277 15.8545C10.9481 15.2294 10.7955 14.5417 10.9263 13.8123C11.1661 12.4787 12.5612 11.5618 14.0871 11.7285C15.2642 11.8535 16.2234 12.7496 16.4632 13.8957C16.7247 15.2085 15.7656 16.5422 14.3051 16.834C13.9345 16.9173 13.5203 16.8965 13.0844 16.9173C12.4522 18.6886 12.5612 20.4599 13.6511 22.127C15.1116 24.3776 17.4223 25.3987 20.5395 25.1903C20.2125 26.6907 19.9073 28.1077 19.5804 29.629C20.7793 28.587 21.9128 27.6076 23.0245 26.6282C22.6104 26.3573 22.0654 26.0447 21.6076 25.6904C19.9291 24.3984 18.9482 22.773 18.5776 20.8975C18.5558 20.7517 18.4468 20.5433 18.2942 20.4599C16.7683 19.6889 16.2452 18.0635 17.0953 16.7506C17.9237 15.4794 19.7111 15.1044 21.0409 15.9171C22.9373 17.084 22.6758 19.6472 20.5613 20.5016C20.3433 20.5849 20.2779 20.6683 20.3433 20.8559C20.6049 21.481 20.7793 22.127 21.1499 22.7105C23.5259 26.5657 29.2589 27.0658 32.3979 23.7108C32.4851 23.6274 32.5505 23.5232 32.5723 23.5024C31.7658 23.3357 30.9592 23.1898 30.1745 23.0022C29.9565 22.9397 29.8039 22.9397 29.5859 23.0648C28.5832 23.6274 27.3625 23.5649 26.4469 22.898C25.248 22.0645 24.9864 20.5016 25.8366 19.3555C26.9483 17.8551 29.3243 17.8342 30.4579 19.3346C30.9592 20.0015 31.0464 20.7308 30.872 21.5019C30.981 21.5435 31.0682 21.5644 31.1554 21.606C32.4197 21.9186 33.6187 21.8144 34.774 21.2935C36.8666 20.3349 38.022 18.126 37.5206 16.0629C37.3026 15.146 36.8448 14.3125 36.0601 13.6248C35.7331 13.9582 35.4279 14.2708 35.1228 14.6042C35.0574 14.6876 35.0356 14.8126 35.0356 14.896C35.101 15.4378 35.0138 15.9587 34.7522 16.4589C33.8366 18.1468 31.3298 18.376 30.0437 16.8965C29.4987 16.2713 29.3461 15.5628 29.4769 14.7918C29.7385 13.3747 31.2862 12.4161 32.8339 12.7287C33.2699 12.8121 33.6623 13.0413 34.0982 13.208C36.3435 11.145 35.8857 7.39401 33.1391 5.70607C32.2889 5.1851 31.3298 4.89336 30.2399 4.87252C30.3707 5.20594 30.4579 5.49768 30.5886 5.78942C30.6104 5.85194 30.7194 5.93529 30.7848 5.95613C32.071 6.26871 33.0519 7.60239 32.7467 8.97775C32.4415 10.4156 30.8284 11.3534 29.2807 10.9783C27.7548 10.6032 26.8393 9.10279 27.2971 7.70659C27.5368 6.97723 28.06 6.43542 28.823 6.06033C27.5804 2.35103 23.3733 1.24657 21.1499 1.99677C21.9128 2.60109 22.8065 3.16374 23.5259 3.85142C25.4442 5.68523 26.3597 7.85246 26.4687 10.2906C26.4687 10.4573 26.5341 10.6657 26.6649 10.749C27.6676 11.4576 28.0164 12.3536 27.8202 13.4164C27.624 14.4167 26.6867 15.2919 25.5968 15.4586C24.485 15.6462 23.3515 15.2085 22.7412 14.3542C22.1962 13.5831 22.109 12.7704 22.4578 11.9369C22.8501 11.0408 23.5913 10.499 24.6812 10.2906C24.6812 10.2489 24.703 10.2072 24.703 10.1864C24.703 10.1239 24.703 10.0614 24.703 9.97801C24.5722 8.47762 24.0491 7.08143 23.0681 5.8311C21.0845 3.24709 17.6185 2.01761 14.1961 2.68445C12.365 3.03871 10.8827 3.87226 9.662 5.0809C9.68379 5.10174 9.70559 5.12258 9.70559 5.12258C9.79279 5.12258 9.90178 5.12258 9.98898 5.12258C11.2751 5.10174 12.4958 5.26845 13.6947 5.68523C13.9345 5.76858 14.1089 5.76858 14.3269 5.60187C15.395 4.85168 16.8773 4.91419 17.8583 5.72691C18.9918 6.68549 19.1226 8.26924 18.1416 9.35285C17.0953 10.5198 15.2424 10.6032 14.0435 9.5404C13.4114 8.97775 13.128 8.31091 13.1934 7.53988C13.2152 7.24814 13.1062 7.16478 12.801 7.08143C9.83639 6.28955 7.15516 6.76884 4.8881 8.54014C2.09788 10.7699 1.33493 13.5414 2.11968 16.6673C2.38126 17.605 2.86083 18.4802 3.49299 19.2721ZM28.9756 8.45678C28.9756 8.97775 29.4333 9.43621 30.0219 9.45704C30.6104 9.47788 31.1118 8.99859 31.1118 8.45678C31.1118 7.91498 30.6322 7.47736 30.0437 7.47736C29.4551 7.47736 28.9756 7.91498 28.9756 8.45678ZM33.3571 15.2502C33.3571 14.7084 32.8775 14.2708 32.3107 14.25C31.7222 14.25 31.2208 14.7084 31.2426 15.2502C31.2426 15.792 31.744 16.2296 32.3107 16.2296C32.8775 16.2296 33.3571 15.792 33.3571 15.2502ZM7.19876 15.5836C7.19876 15.0418 6.74098 14.6042 6.17422 14.5834C5.60746 14.5625 5.08429 15.0418 5.08429 15.5836C5.08429 16.1255 5.56386 16.5631 6.13062 16.5631C6.69739 16.5631 7.17696 16.1255 7.19876 15.5836ZM20.5831 18.0843C20.5831 17.5425 20.1253 17.1049 19.5368 17.084C18.9482 17.0632 18.4468 17.5216 18.4468 18.0635C18.4468 18.5844 18.9482 19.0429 19.515 19.0429C20.0817 19.0637 20.5831 18.6261 20.5831 18.0843ZM15.9836 6.70633C15.395 6.70633 14.9155 7.14394 14.9155 7.68575C14.9155 8.22756 15.4168 8.68601 16.0054 8.68601C16.5722 8.68601 17.0517 8.22756 17.0517 7.68575C17.0517 7.1231 16.5722 6.70633 15.9836 6.70633ZM25.0736 13.9165C25.6622 13.9165 26.1417 13.4789 26.1417 12.958C26.1635 12.4162 25.6404 11.9577 25.0736 11.9577C24.5068 11.9577 24.0273 12.4161 24.0273 12.9371C24.0273 13.4789 24.5068 13.9165 25.0736 13.9165ZM29.2153 20.7725C29.2153 20.2307 28.7358 19.7931 28.1472 19.7931C27.5586 19.7931 27.1009 20.2307 27.1009 20.7933C27.1009 21.3351 27.5804 21.7728 28.169 21.7519C28.7794 21.7519 29.2153 21.3351 29.2153 20.7725ZM14.7629 14.2708C14.7629 13.729 14.2833 13.2914 13.7165 13.2914C13.128 13.2914 12.6484 13.7082 12.6484 14.25C12.6266 14.7918 13.128 15.2502 13.7165 15.2502C14.2833 15.2502 14.7629 14.8126 14.7629 14.2708Z" fill="#F7A209"/>
<path d="M103.505 51.7383H60.9102V52.0925H103.505V51.7383Z" fill="#219EBC"/>
</svg>
